REM DIRINDEX 1\2\6,1\2\7,1\2\8,1\2\9,1\3\10,1\3\11,1\4\12,1\4\13,1\4\14,1\5\15,1\5\16,1\5\17
REM DIRNAME folder01,folder02,folder03,folder04,folder05,folder06,folder07,folder08,folder09,folder10,folder11,folder12,folder13,folder14,folder15,folder16,folder17
TITLE ""
FILE "1900_2_sec05_0465_0481.mp3" MP3
  TRACK 01 AUDIO
    TITLE "0:"
    INDEX 01 00:00:00
  TRACK 02 AUDIO
    TITLE "13:cjc020_3034"
    INDEX 01 00:00:17
  TRACK 03 AUDIO
    TITLE "0:"
    INDEX 01 00:01:19
  TRACK 04 AUDIO
    TITLE "14:cjc020_3035"
    INDEX 01 00:01:24
  TRACK 05 AUDIO
    TITLE "0:"
    INDEX 01 00:03:27
  TRACK 06 AUDIO
    TITLE "13:cjc020_3036"
    INDEX 01 00:04:07
  TRACK 07 AUDIO
    TITLE "0:"
    INDEX 01 00:05:30
  TRACK 08 AUDIO
    TITLE "14:cjc020_3037"
    INDEX 01 00:05:32
  TRACK 09 AUDIO
    TITLE "0:"
    INDEX 01 00:08:40
  TRACK 10 AUDIO
    TITLE "13:cjc020_3038"
    INDEX 01 00:09:18
  TRACK 11 AUDIO
    TITLE "0:"
    INDEX 01 00:10:41
  TRACK 12 AUDIO
    TITLE "14:cjc020_3039"
    INDEX 01 00:10:45
  TRACK 13 AUDIO
    TITLE "0:"
    INDEX 01 00:14:09
  TRACK 14 AUDIO
    TITLE "13:cjc020_3040"
    INDEX 01 00:14:64
  TRACK 15 AUDIO
    TITLE "0:"
    INDEX 01 00:15:68
  TRACK 16 AUDIO
    TITLE "14:cjc020_3041"
    INDEX 01 00:15:72
  TRACK 17 AUDIO
    TITLE "0:"
    INDEX 01 00:19:44
  TRACK 18 AUDIO
    TITLE "13:cjc020_3042"
    INDEX 01 00:20:26
  TRACK 19 AUDIO
    TITLE "0:"
    INDEX 01 00:21:37
  TRACK 20 AUDIO
    TITLE "14:cjc020_3043"
    INDEX 01 00:21:41
  TRACK 21 AUDIO
    TITLE "0:"
    INDEX 01 00:25:13
  TRACK 22 AUDIO
    TITLE "13:cjc020_3044"
    INDEX 01 00:25:66
  TRACK 23 AUDIO
    TITLE "0:"
    INDEX 01 00:26:69
  TRACK 24 AUDIO
    TITLE "14:cjc020_3045"
    INDEX 01 00:27:00
  TRACK 25 AUDIO
    TITLE "0:"
    INDEX 01 00:28:41
  TRACK 26 AUDIO
    TITLE "13:cjc020_3046"
    INDEX 01 00:29:17
  TRACK 27 AUDIO
    TITLE "0:"
    INDEX 01 00:30:18
  TRACK 28 AUDIO
    TITLE "14:cjc020_3047"
    INDEX 01 00:30:26
  TRACK 29 AUDIO
    TITLE "0:"
    INDEX 01 00:32:29
  TRACK 30 AUDIO
    TITLE "13:cjc020_3048"
    INDEX 01 00:33:11
  TRACK 31 AUDIO
    TITLE "0:"
    INDEX 01 00:34:26
  TRACK 32 AUDIO
    TITLE "14:cjc020_3049"
    INDEX 01 00:34:32
  TRACK 33 AUDIO
    TITLE "0:"
    INDEX 01 00:35:59
  TRACK 34 AUDIO
    TITLE "13:cjc020_3050"
    INDEX 01 00:36:36
  TRACK 35 AUDIO
    TITLE "0:"
    INDEX 01 00:37:38
  TRACK 36 AUDIO
    TITLE "14:cjc020_3051"
    INDEX 01 00:37:42
  TRACK 37 AUDIO
    TITLE "0:"
    INDEX 01 00:41:00
  TRACK 38 AUDIO
    TITLE "13:cjc020_3052"
    INDEX 01 00:41:59
  TRACK 39 AUDIO
    TITLE "0:"
    INDEX 01 00:42:55
  TRACK 40 AUDIO
    TITLE "14:cjc020_3053"
    INDEX 01 00:42:61
  TRACK 41 AUDIO
    TITLE "0:"
    INDEX 01 00:46:09
  TRACK 42 AUDIO
    TITLE "13:cjc020_3054"
    INDEX 01 00:46:64
  TRACK 43 AUDIO
    TITLE "0:"
    INDEX 01 00:48:08
  TRACK 44 AUDIO
    TITLE "14:cjc020_3055"
    INDEX 01 00:48:14
  TRACK 45 AUDIO
    TITLE "0:"
    INDEX 01 00:50:19
  TRACK 46 AUDIO
    TITLE "13:cjc020_3056"
    INDEX 01 00:50:74
  TRACK 47 AUDIO
    TITLE "0:"
    INDEX 01 00:51:73
  TRACK 48 AUDIO
    TITLE "14:cjc020_3057"
    INDEX 01 00:52:02
  TRACK 49 AUDIO
    TITLE "0:"
    INDEX 01 00:55:71
  TRACK 50 AUDIO
    TITLE "13:cjc020_3058"
    INDEX 01 00:56:51
  TRACK 51 AUDIO
    TITLE "0:"
    INDEX 01 00:57:52
  TRACK 52 AUDIO
    TITLE "14:cjc020_3059"
    INDEX 01 00:57:54
  TRACK 53 AUDIO
    TITLE "0:"
    INDEX 01 01:00:62
  TRACK 54 AUDIO
    TITLE "13:cjc020_3060"
    INDEX 01 01:01:42
  TRACK 55 AUDIO
    TITLE "0:"
    INDEX 01 01:02:71
  TRACK 56 AUDIO
    TITLE "14:cjc020_3061"
    INDEX 01 01:03:02
  TRACK 57 AUDIO
    TITLE "0:"
    INDEX 01 01:04:29
  TRACK 58 AUDIO
    TITLE "12:cjc020_3062"
    INDEX 01 01:06:00
  TRACK 59 AUDIO
    TITLE "0:"
    INDEX 01 01:07:47
  TRACK 60 AUDIO
    TITLE "13:cjc020_3063"
    INDEX 01 01:08:44
  TRACK 61 AUDIO
    TITLE "0:"
    INDEX 01 01:09:65
  TRACK 62 AUDIO
    TITLE "14:cjc020_3064"
    INDEX 01 01:09:69
  TRACK 63 AUDIO
    TITLE "0:"
    INDEX 01 01:12:58
  TRACK 64 AUDIO
    TITLE "13:cjc020_3065"
    INDEX 01 01:13:40
  TRACK 65 AUDIO
    TITLE "0:"
    INDEX 01 01:14:49
  TRACK 66 AUDIO
    TITLE "14:cjc020_3066"
    INDEX 01 01:14:53
  TRACK 67 AUDIO
    TITLE "0:"
    INDEX 01 01:17:08
  TRACK 68 AUDIO
    TITLE "13:cjc020_3067"
    INDEX 01 01:17:63
  TRACK 69 AUDIO
    TITLE "0:"
    INDEX 01 01:19:05
  TRACK 70 AUDIO
    TITLE "14:cjc020_3068"
    INDEX 01 01:19:09
  TRACK 71 AUDIO
    TITLE "0:"
    INDEX 01 01:20:20
